<?xml version="1.0" encoding="utf-8"?>
<svg width="490" height="200" viewBox="40 0 600 500" xmlns="http://www.w3.org/2000/svg">
  <path d="M 563.885 465.394 C 552.746 455.982 545.981 441.114 547.755 426.64 C 549.529 412.166 560.519 398.86 574.773 395.786 C 589.028 392.713 605.277 401.221 609.607 415.146 C 611.99 388.299 614.736 360.328 629.009 337.466 C 641.933 316.765 664.318 301.952 688.578 299.302 C 712.838 296.652 738.38 306.661 753.51 325.809 C 768.64 344.957 772.345 372.795 761.748 394.778 C 753.942 410.973 739.56 423.025 724.492 432.83 C 675.8 464.247 617.4 477.023 560.038 468.807 L 563.885 465.394 Z" fill="#f2f2f2"/>
  <path d="M 729.52 307.216 C 709.503 323.52 691.139 341.756 674.694 361.658 C 648.958 392.699 628.132 427.501 612.942 464.852 C 611.83 467.577 616.255 468.763 617.354 466.069 C 642.208 405.365 681.885 351.861 732.756 310.451 C 735.04 308.591 731.786 305.371 729.52 307.216 Z" fill="#fff"/>
  <path d="M 177.859 462.836 C 193.158 449.909 202.45 429.488 200.013 409.608 C 197.576 389.728 182.483 371.452 162.904 367.231 C 143.325 363.009 121.006 374.695 115.06 393.821 C 111.787 356.947 108.015 318.529 88.411 287.128 C 70.66 258.695 39.915 238.35 6.593 234.71 C -26.728 231.07 -61.811 244.817 -82.592 271.117 C -103.373 297.417 -108.461 335.652 -93.906 365.846 C -83.185 388.089 -63.431 404.643 -42.735 418.11 C 23.295 461.076 105.205 478.995 183.143 467.525" fill="#f2f2f2"/>
  <path d="M -49.641 245.579 C -22.147 267.973 3.076 293.02 25.663 320.356 C 48.253 347.663 68.142 377.098 85.049 408.246 C 94.499 425.719 102.989 443.694 110.479 462.093 C 112.007 465.835 105.929 467.464 104.419 463.763 C 91.151 431.327 74.736 400.27 55.41 371.036 C 36.177 341.909 14.165 314.715 -10.319 289.838 C -24.167 275.774 -38.778 262.483 -54.085 250.023 C -57.223 247.468 -52.753 243.045 -49.641 245.579 L -49.641 245.579 Z" fill="#fff"/>
  <path d="M 522.292 470.137 L 157.292 470.137 L 157.292 95.637 C 157.292 15.959 222.114 -48.863 301.792 -48.863 L 377.792 -48.863 C 457.47 -48.863 522.292 15.959 522.292 95.637 L 522.292 470.137 Z" fill="#f2f2f2"/>
  <path d="M 446.292 470.137 L 157.292 470.137 L 157.292 95.637 C 157.212 65.106 166.88 35.347 184.888 10.693 C 185.552 9.788 186.214 8.895 186.897 8.012 C 195.607 -3.412 205.972 -13.473 217.651 -21.839 C 218.311 -22.319 218.973 -22.791 219.645 -23.262 C 229.417 -30.025 239.988 -35.553 251.117 -39.721 C 251.778 -39.972 252.451 -40.223 253.124 -40.464 C 263.189 -44.056 273.623 -46.516 284.232 -47.8 C 284.89 -47.889 285.565 -47.96 286.24 -48.03 C 296.579 -49.135 307.007 -49.135 317.346 -48.03 C 318.019 -47.96 318.695 -47.889 319.36 -47.799 C 329.967 -46.515 340.398 -44.055 350.46 -40.464 C 351.134 -40.223 351.806 -39.972 352.469 -39.721 C 363.461 -35.605 373.907 -30.16 383.576 -23.505 C 384.247 -23.044 384.92 -22.572 385.582 -22.1 C 392.128 -17.428 398.277 -12.222 403.966 -6.536 C 408.527 -1.976 412.778 2.885 416.69 8.014 C 417.371 8.895 418.033 9.788 418.695 10.691 C 436.704 35.346 446.372 65.106 446.292 95.637 L 446.292 470.137 Z" fill="#ccc"/>
  <circle cx="422.792" cy="286.637" r="16" style="fill: rgb(108, 99, 254);"/>
  <polygon points="492.391 458.92 480.131 458.92 474.298 411.632 492.393 411.633 492.391 458.92" fill="#ffb8b8"/>
  <path d="M 471.374 455.417 L 495.018 455.417 C 495.018 455.417 495.018 455.417 495.018 455.417 L 495.018 470.304 C 495.018 470.304 495.018 470.304 495.018 470.304 L 456.487 470.304 C 456.487 470.304 456.487 470.304 456.487 470.304 C 456.487 462.082 463.152 455.417 471.374 455.417 L 471.374 455.417 Z" fill="#2f2e41"/>
  <polygon points="553.391 458.92 541.131 458.92 535.298 411.632 553.393 411.633 553.391 458.92" fill="#ffb8b8"/>
  <path d="M 532.374 455.417 L 556.018 455.417 C 556.018 455.417 556.018 455.417 556.018 455.417 L 556.018 470.304 C 556.018 470.304 556.018 470.304 556.018 470.304 L 517.487 470.304 C 517.487 470.304 517.487 470.304 517.487 470.304 C 517.487 462.082 524.152 455.417 532.374 455.417 L 532.374 455.417 Z" fill="#2f2e41"/>
  <path d="M 430.89 289.807 C 427.134 284.273 429.293 276.689 435.4 273.964 L 477.076 159.097 L 497.583 170.288 L 449.998 280.059 C 452.877 287.859 446.233 295.851 438.038 294.444 C 435.121 293.943 432.536 292.267 430.89 289.807 Z" fill="#ffb8b8"/>
  <path d="M 547.129 311.391 C 541.327 308.064 539.942 300.302 544.236 295.174 L 531.325 173.665 L 554.663 174.731 L 560.028 294.251 C 566.036 299.999 563.568 310.095 555.587 312.424 C 552.745 313.253 549.687 312.88 547.129 311.391 L 547.129 311.391 Z" fill="#ffb8b8"/>
  <circle cx="509.898" cy="113.26" r="24.561" fill="#ffb8b8"/>
  <path d="M 546.972 283.756 L 472.925 283.756 L 473.014 283.179 C 473.147 282.318 486.211 196.74 476.576 168.743 C 474.573 163.046 477.191 156.755 482.645 154.16 C 496.417 147.675 522.853 139.689 545.165 159.069 C 551.822 164.946 555.326 173.613 554.625 182.465 L 546.972 283.756 Z" style="fill: rgb(108, 99, 254);"/>
  <path d="M 487.147 209.387 L 453.81 202.624 L 469.436 165.594 C 472.155 155.168 485.141 151.594 492.811 159.162 C 496.354 162.657 497.774 167.77 496.542 172.592 L 487.147 209.387 Z" style="fill: rgb(108, 99, 254);"/>
  <path d="M 529.843 221.945 L 527.838 176.004 C 526.319 167.367 531.263 159.203 538.866 157.869 C 546.471 156.539 553.898 162.529 555.424 171.229 L 562.957 214.157 L 529.843 221.945 Z" style="fill: rgb(108, 99, 254);"/>
  <path d="M 544.508 278.256 C 556.423 323.632 557.723 381.325 554.508 444.256 L 538.508 442.256 L 509.508 322.256 L 493.508 444.256 L 475.508 443.256 C 470.131 377.226 464.895 320.54 473.508 283.256 L 544.508 278.256 Z" fill="#2f2e41"/>
  <path d="M 526.081 132.241 C 521.499 137.122 512.99 134.502 512.393 127.834 C 512.346 127.316 512.35 126.795 512.403 126.278 C 512.711 123.325 514.418 120.643 514.009 117.525 C 513.916 116.748 513.627 116.009 513.169 115.376 C 509.518 110.486 500.947 117.562 497.501 113.136 C 495.388 110.422 497.871 106.149 496.25 103.116 C 494.11 99.112 487.771 101.087 483.796 98.895 C 479.373 96.455 479.638 89.669 482.549 85.542 C 486.1 80.508 492.325 77.822 498.473 77.435 C 504.62 77.048 510.726 78.71 516.465 80.947 C 522.986 83.488 529.453 87 533.466 92.734 C 538.346 99.708 538.815 109.082 536.375 117.236 C 534.89 122.196 529.823 128.255 526.081 132.241 Z" fill="#2f2e41"/>
  <path d="M 737.774 470.78 L -0.52 470.78 C -1.437 470.778 -2.007 469.784 -1.546 468.991 C -1.334 468.626 -0.943 468.4 -0.52 468.399 L 737.774 468.399 C 738.69 468.402 739.26 469.396 738.8 470.188 C 738.587 470.554 738.197 470.779 737.774 470.78 Z" fill="#3f3d56"/>
  <path d="M 366.792 361.637 L 236.792 361.637 C 233.227 361.656 230.32 358.786 230.292 355.222 L 230.292 65.052 C 230.32 61.488 233.227 58.618 236.792 58.637 L 366.792 58.637 C 370.357 58.618 373.265 61.488 373.292 65.052 L 373.292 355.222 C 373.265 358.786 370.357 361.656 366.792 361.637 Z" fill="#fff"/>
  <rect x="230.292" y="152.527" width="143" height="2" fill="#ccc"/>
  <rect x="230.792" y="266.637" width="143" height="2" fill="#ccc"/>
  <rect x="275.292" y="58.637" width="2" height="304" fill="#ccc"/>
  <rect x="325.292" y="58.637" width="2" height="304" fill="#ccc"/>
</svg>